# xmcd
# 
# Track frame offsets:
#     150
#     18255
#     34570
#     57051
#     72471
#     91587
#     110826
#     126951
#     155086
#     180961
#     200016
#     217136
#     236180
#     254361
# 
# Disc length: 3661
# 
# Revision: 1
# Processed by: cddbd v1.5.2PL0 Copyright (c) Steve Scherf et al.
# Submitted via: fre:ac v1.0.31
# 
DISCID=c70e4b0e
DTITLE=Laura Fygi - The Best of Laura Fygi
DYEAR=1995
DGENRE=Blues
TTITLE0=You do something to me
TTITLE1=Dream a little dream
TTITLE2=Have I told you lately that I love you
TTITLE3=Sabor a mi
TTITLE4=I only have eyes for you
TTITLE5=Still
TTITLE6=How insensitive
TTITLE7=Bewitched
TTITLE8=Turn out the lamplight
TTITLE9=Din din
TTITLE10=I love you for sentimental reasons
TTITLE11=Take a bow
TTITLE12=Corcovado
TTITLE13=Baby come to me
EXTD=
EXTT0=
EXTT1=
EXTT2=
EXTT3=
EXTT4=
EXTT5=
EXTT6=
EXTT7=
EXTT8=
EXTT9=
EXTT10=
EXTT11=
EXTT12=
EXTT13=
PLAYORDER=
